# xmcd
#
# Track frame offsets:
#	150
#	10358
#	22698
#	33161
#	44048
#	56226
#	69294
#	79754
#	90596
#	102427
#	112992
#	122529
#	137077
#	148768
#	158573
#
# Disc length: 2299
#
# Revision: 1
# Processed by: cddbd v1.5.1PL0 Copyright (c) Steve Scherf et al.
# Submitted via: CDex 1.50
# Normalized: r0:TRMNUM
#
DISCID=be08f90f
DTITLE=Various Artist - Classic Country 1965-1969
DYEAR=1900
DGENRE=Country
TTITLE0=Walk Through This World With Me_George Jones
TTITLE1=Jackson_Johnny Cash with June Carter
TTITLE2=Flowers On The Wall_Thes Statler Brothers
TTITLE3=King Of The Road_Roger Miller
TTITLE4=Okie From Muskogee_Merle Haggard And The Strangers
TTITLE5=Ruby, Don't Take Your guns To Town
TTITLE6=Daddy Sang Bass_Johnny Cash
TTITLE7=Crying in the chapel_elvis presley with the jordanaires
TTITLE8=make the world go away_eddy arnold
TTITLE9=only daddy that'll walk the line_waylon jennings
TTITLE10=don't come home a-drinkin_Loretta lynn
TTITLE11=harper valley P.T.A._ Jeannie c. riley
TTITLE12=skip a rope_henson cargill
TTITLE13=mama tried_merele haggard
TTITLE14=wichita lineman_glen campbell
EXTD=
EXTT0=
EXTT1=
EXTT2=
EXTT3=
EXTT4=
EXTT5=
EXTT6=
EXTT7=
EXTT8=
EXTT9=
EXTT10=
EXTT11=
EXTT12=
EXTT13=
EXTT14=
PLAYORDER=
